<svg width="32" height="32" viewBox="0 0 32 32" fill="none" xmlns="http://www.w3.org/2000/svg">
  <!-- Background circle -->
  <circle cx="16" cy="16" r="15" fill="#0ea5e9" stroke="#0284c7" stroke-width="2"/>
  
  <!-- Scout AI Icon - Camera lens with AI sparkle -->
  <circle cx="16" cy="16" r="8" fill="none" stroke="white" stroke-width="2"/>
  <circle cx="16" cy="16" r="4" fill="white"/>
  <circle cx="16" cy="16" r="2" fill="#0ea5e9"/>
  
  <!-- AI Sparkles -->
  <g fill="white">
    <!-- Top sparkle -->
    <polygon points="16,4 17,7 16,8 15,7" opacity="0.9"/>
    <!-- Bottom sparkle -->
    <polygon points="16,24 17,27 16,28 15,27" opacity="0.9"/>
    <!-- Left sparkle -->
    <polygon points="4,16 7,15 8,16 7,17" opacity="0.9"/>
    <!-- Right sparkle -->
    <polygon points="24,16 27,15 28,16 27,17" opacity="0.9"/>
    <!-- Top-right sparkle -->
    <polygon points="23,9 25,8 26,9 25,10 24,9" opacity="0.7"/>
    <!-- Bottom-left sparkle -->
    <polygon points="9,23 8,25 9,26 10,25 9,24" opacity="0.7"/>
  </g>
</svg>